<svg width="25" height="26" viewBox="0 0 25 26" fill="none" xmlns="http://www.w3.org/2000/svg">
<path d="M9.375 19.25C10.2379 19.25 10.9375 19.9496 10.9375 20.8125C10.9375 21.6754 10.2379 22.375 9.375 22.375C8.51206 22.375 7.8125 21.6754 7.8125 20.8125C7.8125 19.9496 8.51206 19.25 9.375 19.25Z" stroke="white" stroke-width="1.5"/>
<path d="M16.666 19.25C17.529 19.25 18.2285 19.9496 18.2285 20.8125C18.2285 21.6754 17.529 22.375 16.666 22.375C15.8031 22.375 15.1035 21.6754 15.1035 20.8125C15.1035 19.9496 15.8031 19.25 16.666 19.25Z" stroke="white" stroke-width="1.5"/>
<path d="M5.99023 13C5.99023 11.5048 5.99189 10.4619 6.09768 9.67512C6.20044 8.91077 6.38841 8.50601 6.6767 8.21772C6.96499 7.92943 7.36975 7.74146 8.13411 7.6387C8.92093 7.53291 9.96376 7.53125 11.459 7.53125H14.4977C16.2341 7.53125 17.4524 7.53311 18.3579 7.66164C19.2418 7.78708 19.6834 8.01574 19.975 8.36006C20.2667 8.70437 20.4197 9.17754 20.3982 10.07C20.3761 10.9843 20.1775 12.1864 19.8921 13.8991C19.681 15.1659 19.533 16.0446 19.337 16.7032C19.1472 17.3408 18.9375 17.6782 18.66 17.9133C18.3824 18.1484 18.0152 18.2998 17.355 18.3822C16.6732 18.4673 15.7822 18.4687 14.4977 18.4687H11.459C9.96376 18.4687 8.92093 18.4671 8.13411 18.3614C7.36975 18.2585 6.96499 18.0706 6.6767 17.7823C6.38841 17.494 6.20044 17.0893 6.09768 16.3249C5.99189 15.538 5.99023 14.4952 5.99023 13Z" stroke="white" stroke-width="1.5"/>
<path d="M5.98893 12.4792V5.70833C5.98893 4.55774 5.05619 3.625 3.9056 3.625H2.60352" stroke="white" stroke-width="1.5" stroke-linecap="round"/>
</svg>