<svg width="25" height="25" fill="#808A94" xmlns="http://www.w3.org/2000/svg"><g clip-path="url(#a)"><path d="M12.41 13.47h.165c1.517-.025 2.744-.558 3.65-1.578 1.993-2.247 1.662-6.099 1.625-6.466-.129-2.76-1.434-4.08-2.51-4.696C14.537.27 13.6.02 12.554 0h-.088c-.574 0-1.703.093-2.785.71-1.087.615-2.412 1.935-2.542 4.716-.036.367-.367 4.219 1.626 6.466.9 1.02 2.127 1.553 3.644 1.579ZM8.52 5.556c0-.016.006-.031.006-.041.17-3.712 2.806-4.111 3.934-4.111h.062c1.398.031 3.774.6 3.935 4.11a.1.1 0 0 0 .005.042c.005.036.368 3.557-1.279 5.41-.652.735-1.522 1.098-2.666 1.108h-.052c-1.139-.01-2.013-.373-2.66-1.108-1.642-1.843-1.29-5.379-1.285-5.41Z"></path><path d="M23.131 19.86v-.016c0-.042-.005-.083-.005-.13-.031-1.025-.099-3.422-2.345-4.188l-.052-.015c-2.335-.596-4.276-1.942-4.297-1.957a.698.698 0 1 0-.802 1.144c.087.062 2.148 1.496 4.726 2.159 1.206.43 1.341 1.718 1.377 2.899 0 .046 0 .088.005.13.006.465-.026 1.185-.108 1.599-.839.476-4.126 2.123-9.127 2.123-4.98 0-8.289-1.652-9.133-2.128-.083-.414-.119-1.134-.108-1.6 0-.041.005-.083.005-.13.036-1.18.17-2.469 1.377-2.898 2.578-.663 4.638-2.102 4.726-2.16a.698.698 0 1 0-.802-1.143c-.02.015-1.952 1.361-4.297 1.957a.614.614 0 0 0-.052.015c-2.247.771-2.314 3.168-2.345 4.188 0 .047 0 .088-.005.13v.015c-.005.27-.01 1.652.264 2.345a.664.664 0 0 0 .27.326C2.556 22.63 6.28 25 12.507 25c6.228 0 9.95-2.376 10.105-2.474a.693.693 0 0 0 .27-.327c.258-.688.253-2.07.248-2.34Z"></path><path d="M19.86 17.5c-1.6 0-4.334-1.667-5.5-2.5-1 .5 5 5 5 5.5s-7 2.5-5 2.5c1.6 0 5.14-1 6.64-1.5.333-1.333.46-4-1.14-4ZM11 2.235c.5 0 5 3.765 4.5 6.765-.5 3 3-8.765-4.5-6.765Z" fill="#DFE2E4"></path></g><defs><clipPath id="a"><path fill="#fff" d="M0 0h25v25H0z"></path></clipPath></defs></svg>