<svg width="25" height="25" xmlns="http://www.w3.org/2000/svg" fill="#BE1E2D"><g clip-path="url(#a)"><path opacity="0.1" d="m12.5.781-1.2.969 9.012 7.625v14.453h2.344V9.375L12.5.781Z"></path><path d="M10.156 13.281h4.688a1.563 1.563 0 0 1 1.562 1.563v9.375H8.594v-9.375a1.562 1.562 0 0 1 1.562-1.563Z"></path><path d="M11.719 19.531a.781.781 0 1 0 0-1.562.781.781 0 0 0 0 1.562Z"></path><path d="M24.719 9.555 20.703 6.21V3.516a.781.781 0 1 0-1.562 0v1.39L14 .625a2.344 2.344 0 0 0-3 0L.281 9.555a.782.782 0 1 0 1 1.203L12 1.824a.781.781 0 0 1 1 0l8.875 7.395v13.437a.781.781 0 0 1-.781.782h-3.907v-8.594a2.343 2.343 0 0 0-2.343-2.344h-4.688a2.344 2.344 0 0 0-2.344 2.344v8.594H3.906a.781.781 0 0 1-.781-.782v-9.375a.781.781 0 1 0-1.563 0v9.375A2.343 2.343 0 0 0 3.906 25h17.188a2.343 2.343 0 0 0 2.343-2.344V10.523l.282.235a.78.78 0 0 0 .95.038.781.781 0 0 0 .05-1.241ZM9.375 23.438v-8.594a.781.781 0 0 1 .781-.781h4.688a.781.781 0 0 1 .781.78v8.595h-6.25Z"></path></g><defs><clipPath id="a"><path d="M0 0h25v25H0z"></path></clipPath></defs></svg>