<svg width="25" height="25" xmlns="http://www.w3.org/2000/svg" fill="#808A94"><path d="M8.672 22.852H2.734a.586.586 0 0 1-.586-.586v-5.921a.586.586 0 0 1 1.172 0v5.335h5.352a.586.586 0 1 1 0 1.172Z"></path><path d="M9.375 24.023h-6.25a2.15 2.15 0 0 1-2.148-2.148v-6.25a2.15 2.15 0 0 1 2.148-2.148h6.25a2.15 2.15 0 0 1 2.148 2.148v6.25a2.15 2.15 0 0 1-2.148 2.148Zm-6.25-9.375a.979.979 0 0 0-.977.977v6.25a.978.978 0 0 0 .977.977h6.25a.979.979 0 0 0 .977-.977v-6.25a.979.979 0 0 0-.977-.977h-6.25Z"></path><path d="M21.172 22.852h-5.938a.586.586 0 0 1-.586-.586v-5.921a.586.586 0 0 1 1.172 0v5.335h5.352a.586.586 0 1 1 0 1.172ZM8.672 10.352H2.734a.586.586 0 0 1-.586-.586V3.845a.586.586 0 1 1 1.172 0V9.18h5.352a.586.586 0 1 1 0 1.172Z"></path><path d="M18.75 11.523a5.273 5.273 0 1 1 0-10.546 5.273 5.273 0 0 1 0 10.546Zm0-9.375a4.102 4.102 0 1 0 0 8.204 4.102 4.102 0 0 0 0-8.204ZM21.875 24.023h-6.25a2.15 2.15 0 0 1-2.148-2.148v-6.25a2.15 2.15 0 0 1 2.148-2.148h6.25a2.15 2.15 0 0 1 2.148 2.148v6.25a2.15 2.15 0 0 1-2.148 2.148Zm-6.25-9.375a.979.979 0 0 0-.977.977v6.25a.979.979 0 0 0 .977.977h6.25a.979.979 0 0 0 .977-.977v-6.25a.979.979 0 0 0-.977-.977h-6.25Z"></path><path d="M18.75 9.18a2.93 2.93 0 1 0 0-5.86 2.93 2.93 0 0 0 0 5.86ZM9.375 11.523h-6.25A2.15 2.15 0 0 1 .977 9.375v-6.25A2.15 2.15 0 0 1 3.125.977h6.25a2.15 2.15 0 0 1 2.148 2.148v6.25a2.15 2.15 0 0 1-2.148 2.148Zm-6.25-9.375a.978.978 0 0 0-.977.977v6.25a.978.978 0 0 0 .977.977h6.25a.979.979 0 0 0 .977-.977v-6.25a.979.979 0 0 0-.977-.977h-6.25Z"></path></svg>