<svg width="25" height="25" fill="none" xmlns="http://www.w3.org/2000/svg"><g clip-path="url(#a)"><path fill="#fff" d="M19 6v14H5V6z"></path><path d="M0 12.5C0 19.393 5.607 25 12.5 25S25 19.393 25 12.5 19.393 0 12.5 0 0 5.607 0 12.5Zm13.236-3.861 5.209 5.208a1.039 1.039 0 0 1 0 1.473 1.04 1.04 0 0 1-1.473 0L12.5 10.848 8.028 15.32a1.04 1.04 0 1 1-1.473-1.473l5.209-5.208a1.04 1.04 0 0 1 1.473 0Z" fill="#BE1E2D"></path></g><defs><clipPath id="a"><path fill="#fff" transform="rotate(90 12.5 12.5)" d="M0 0h25v25H0z"></path></clipPath></defs></svg>