<svg width="25" height="25" xmlns="http://www.w3.org/2000/svg" fill="#808A94"><path d="m13.866 19.726-4.69-6.254a7.815 7.815 0 0 1 4.789-12.358 7.812 7.812 0 0 0-7.719 12.358l4.69 6.253a1.95 1.95 0 0 0 3.029.12 2.018 2.018 0 0 1-.099-.12Z"></path><path d="M12.5 11.719a2.933 2.933 0 0 0 2.93-2.93 2.933 2.933 0 0 0-2.93-2.93 2.933 2.933 0 0 0-2.93 2.93 2.933 2.933 0 0 0 2.93 2.93Zm0-3.906a.978.978 0 0 1 0 1.953.978.978 0 0 1 0-1.954Z"></path><path d="M21.29 8.79C21.29 3.942 17.345 0 12.5 0 7.654 0 3.71 3.943 3.71 8.79c0 1.916.607 3.738 1.755 5.268l4.69 6.254a2.946 2.946 0 0 0 2.345 1.172c.917 0 1.794-.438 2.345-1.173l4.69-6.253a8.716 8.716 0 0 0 1.754-5.269Zm-3.317 4.096-4.69 6.254a.97.97 0 0 1-.783.391.97.97 0 0 1-.782-.391l-4.69-6.254A6.777 6.777 0 0 1 5.663 8.79 6.844 6.844 0 0 1 12.5 1.953a6.844 6.844 0 0 1 6.836 6.836 6.776 6.776 0 0 1-1.363 4.097ZM17.383 24.023a.977.977 0 0 0-.977-.976H8.594a.977.977 0 1 0 0 1.953h7.812c.54 0 .977-.437.977-.977Z"></path></svg>