<svg xmlns="http://www.w3.org/2000/svg" xmlns:xlink="http://www.w3.org/1999/xlink" width="428" zoomAndPan="magnify" viewBox="0 0 321 116.999995" height="156" preserveAspectRatio="xMidYMid meet" version="1.0"><defs><g/><clipPath id="aa6490256a"><path d="M 30 12.496094 L 58 12.496094 L 58 67 L 30 67 Z M 30 12.496094 " clip-rule="nonzero"/></clipPath><clipPath id="55ff93ef43"><path d="M 0 12.496094 L 28 12.496094 L 28 67 L 0 67 Z M 0 12.496094 " clip-rule="nonzero"/></clipPath></defs><path fill="#ffffff" d="M 85.117188 53.492188 L 85.117188 51.335938 C 83.390625 53.28125 81.453125 54 79.386719 54 C 74.457031 54 70.414062 50.28125 70.414062 43.269531 C 70.414062 36.511719 74.375 32.574219 79.386719 32.574219 C 81.453125 32.574219 83.515625 33.289062 85.117188 35.238281 L 85.117188 25.316406 L 92.699219 25.316406 L 92.699219 53.492188 Z M 85.117188 45.886719 L 85.117188 40.652344 C 84.40625 39.757812 82.96875 39.296875 81.957031 39.296875 C 79.894531 39.296875 78.164062 40.734375 78.164062 43.269531 C 78.164062 45.804688 79.894531 47.28125 81.957031 47.28125 C 82.96875 47.28125 84.402344 46.773438 85.117188 45.886719 Z M 85.117188 45.886719 " fill-opacity="1" fill-rule="nonzero"/><path fill="#ffffff" d="M 96.574219 26.878906 C 96.574219 24.808594 98.386719 23.164062 100.617188 23.164062 C 102.851562 23.164062 104.621094 24.808594 104.621094 26.878906 C 104.621094 28.949219 102.84375 30.597656 100.617188 30.597656 C 98.394531 30.597656 96.574219 28.949219 96.574219 26.878906 Z M 96.910156 53.492188 L 96.910156 33.082031 L 104.5 33.082031 L 104.5 53.492188 Z M 96.910156 53.492188 " fill-opacity="1" fill-rule="nonzero"/><path fill="#ffffff" d="M 122.015625 53.492188 L 122.015625 51.335938 C 120.289062 53.28125 118.351562 54 116.289062 54 C 111.359375 54 107.316406 50.28125 107.316406 43.269531 C 107.316406 36.511719 111.273438 32.574219 116.289062 32.574219 C 118.351562 32.574219 120.417969 33.289062 122.015625 35.238281 L 122.015625 25.316406 L 129.601562 25.316406 L 129.601562 53.492188 Z M 122.015625 45.886719 L 122.015625 40.652344 C 121.304688 39.757812 119.871094 39.296875 118.859375 39.296875 C 116.792969 39.296875 115.066406 40.734375 115.066406 43.269531 C 115.066406 45.804688 116.792969 47.28125 118.859375 47.28125 C 119.871094 47.28125 121.300781 46.773438 122.015625 45.886719 Z M 122.015625 45.886719 " fill-opacity="1" fill-rule="nonzero"/><path fill="#ffffff" d="M 132.421875 43.269531 C 132.421875 37.566406 136.632812 32.574219 143.839844 32.574219 C 151.082031 32.574219 155.296875 37.566406 155.296875 43.269531 C 155.296875 48.972656 151.082031 54 143.839844 54 C 136.632812 54 132.421875 48.972656 132.421875 43.269531 Z M 147.503906 43.269531 C 147.503906 41.03125 146.195312 39.296875 143.839844 39.296875 C 141.527344 39.296875 140.214844 41.03125 140.214844 43.269531 C 140.214844 45.550781 141.519531 47.28125 143.839844 47.28125 C 146.195312 47.28125 147.511719 45.558594 147.511719 43.269531 Z M 147.503906 43.269531 " fill-opacity="1" fill-rule="nonzero"/><path fill="#ffffff" d="M 171.890625 53.492188 L 171.890625 42.210938 C 171.890625 40.101562 170.753906 39.296875 168.941406 39.296875 C 167.214844 39.296875 166.332031 40.1875 165.699219 40.902344 L 165.699219 53.488281 L 158.117188 53.488281 L 158.117188 33.082031 L 165.699219 33.082031 L 165.699219 35.398438 C 166.878906 34.046875 169.109375 32.566406 172.691406 32.566406 C 177.410156 32.566406 179.472656 35.441406 179.472656 38.984375 L 179.472656 53.472656 Z M 171.890625 53.492188 " fill-opacity="1" fill-rule="nonzero"/><path fill="#ffffff" d="M 182.96875 58.730469 L 186.167969 53.320312 C 187.726562 54.886719 190.046875 55.558594 192.234375 55.558594 C 194.011719 55.558594 196.953125 54.886719 196.953125 51.296875 L 196.953125 50.191406 C 195.226562 52.175781 193.332031 52.9375 191.222656 52.9375 C 186.339844 52.9375 182.292969 49.730469 182.292969 42.757812 C 182.292969 35.953125 186.203125 32.574219 191.222656 32.574219 C 193.332031 32.574219 195.3125 33.289062 196.953125 35.238281 L 196.953125 33.082031 L 204.535156 33.082031 L 204.535156 51.296875 C 204.535156 60.121094 197.292969 61.769531 192.234375 61.769531 C 188.742188 61.773438 185.625 60.839844 182.96875 58.730469 Z M 196.957031 44.914062 L 196.957031 40.609375 C 196.246094 39.761719 194.808594 39.296875 193.839844 39.296875 C 191.773438 39.296875 190.046875 40.269531 190.046875 42.761719 C 190.046875 45.257812 191.773438 46.226562 193.839844 46.226562 C 194.808594 46.226562 196.238281 45.761719 196.957031 44.914062 Z M 196.957031 44.914062 " fill-opacity="1" fill-rule="nonzero"/><g clip-path="url(#aa6490256a)"><path fill="#ffffff" d="M 30.117188 12.496094 C 44.945312 12.496094 57.578125 24.550781 57.578125 39.421875 C 57.578125 54.289062 44.945312 66.347656 30.117188 66.347656 L 30.117188 57.613281 C 32.25 57.644531 34.367188 57.25 36.347656 56.457031 C 38.324219 55.660156 40.125 54.476562 41.644531 52.976562 C 43.164062 51.472656 44.371094 49.6875 45.195312 47.714844 C 46.019531 45.742188 46.441406 43.625 46.441406 41.484375 C 46.441406 39.347656 46.019531 37.230469 45.195312 35.257812 C 44.371094 33.285156 43.164062 31.496094 41.644531 29.996094 C 40.125 28.492188 38.324219 27.3125 36.347656 26.515625 C 34.367188 25.71875 32.25 25.324219 30.117188 25.355469 Z M 30.117188 12.496094 " fill-opacity="0.8" fill-rule="nonzero"/></g><g clip-path="url(#55ff93ef43)"><path fill="#ffffff" d="M 27.46875 12.496094 L 6.414062 12.496094 C 5.574219 12.496094 4.738281 12.660156 3.960938 12.984375 C 3.183594 13.308594 2.476562 13.78125 1.882812 14.378906 C 1.289062 14.972656 0.816406 15.683594 0.492188 16.464844 C 0.171875 17.242188 0.00390625 18.078125 0.0078125 18.921875 L 0.0078125 61.953125 C 0.0078125 63.117188 0.46875 64.230469 1.289062 65.054688 C 2.109375 65.878906 3.21875 66.339844 4.378906 66.339844 L 27.46875 66.339844 L 27.46875 57.605469 L 15.457031 57.605469 C 15.113281 57.605469 14.773438 57.539062 14.453125 57.40625 C 14.136719 57.273438 13.847656 57.082031 13.605469 56.835938 C 13.363281 56.59375 13.167969 56.304688 13.035156 55.984375 C 12.90625 55.667969 12.835938 55.324219 12.839844 54.980469 L 12.839844 55.023438 L 12.839844 29.160156 L 12.839844 29.214844 C 12.839844 28.195312 13.242188 27.214844 13.964844 26.492188 C 14.683594 25.773438 15.660156 25.367188 16.675781 25.367188 L 16.644531 25.367188 L 27.472656 25.367188 Z M 27.46875 12.496094 " fill-opacity="1" fill-rule="nonzero"/></g><g fill="#c2c2c2" fill-opacity="1"><g transform="translate(206.804989, 52.277947)"><g><path d="M 8.3125 -20.390625 C 9.9375 -22.335938 11.972656 -23.3125 14.421875 -23.3125 C 19.390625 -23.3125 21.90625 -20.425781 21.96875 -14.65625 L 21.96875 0 L 15.859375 0 L 15.859375 -14.484375 C 15.859375 -15.796875 15.578125 -16.765625 15.015625 -17.390625 C 14.453125 -18.015625 13.515625 -18.328125 12.203125 -18.328125 C 10.410156 -18.328125 9.113281 -17.640625 8.3125 -16.265625 L 8.3125 0 L 2.203125 0 L 2.203125 -32.484375 L 8.3125 -32.484375 Z M 8.3125 -20.390625 "/></g></g></g><g fill="#c2c2c2" fill-opacity="1"><g transform="translate(231.039713, 52.277947)"><g><path d="M 15.609375 0 C 15.328125 -0.550781 15.125 -1.234375 15 -2.046875 C 13.519531 -0.398438 11.59375 0.421875 9.21875 0.421875 C 6.976562 0.421875 5.117188 -0.222656 3.640625 -1.515625 C 2.171875 -2.816406 1.4375 -4.453125 1.4375 -6.421875 C 1.4375 -8.847656 2.332031 -10.707031 4.125 -12 C 5.925781 -13.300781 8.523438 -13.960938 11.921875 -13.984375 L 14.734375 -13.984375 L 14.734375 -15.296875 C 14.734375 -16.347656 14.460938 -17.191406 13.921875 -17.828125 C 13.378906 -18.460938 12.523438 -18.78125 11.359375 -18.78125 C 10.328125 -18.78125 9.519531 -18.53125 8.9375 -18.03125 C 8.351562 -17.539062 8.0625 -16.867188 8.0625 -16.015625 L 1.953125 -16.015625 C 1.953125 -17.335938 2.359375 -18.5625 3.171875 -19.6875 C 3.992188 -20.8125 5.148438 -21.695312 6.640625 -22.34375 C 8.128906 -22.988281 9.804688 -23.3125 11.671875 -23.3125 C 14.492188 -23.3125 16.734375 -22.601562 18.390625 -21.1875 C 20.046875 -19.769531 20.875 -17.773438 20.875 -15.203125 L 20.875 -5.28125 C 20.882812 -3.113281 21.1875 -1.472656 21.78125 -0.359375 L 21.78125 0 Z M 10.546875 -4.25 C 11.453125 -4.25 12.285156 -4.445312 13.046875 -4.84375 C 13.804688 -5.25 14.367188 -5.789062 14.734375 -6.46875 L 14.734375 -10.40625 L 12.453125 -10.40625 C 9.398438 -10.40625 7.773438 -9.347656 7.578125 -7.234375 L 7.546875 -6.875 C 7.546875 -6.113281 7.8125 -5.484375 8.34375 -4.984375 C 8.882812 -4.492188 9.617188 -4.25 10.546875 -4.25 Z M 10.546875 -4.25 "/></g></g></g><g fill="#c2c2c2" fill-opacity="1"><g transform="translate(254.259371, 52.277947)"><g><path d="M 10.890625 -8.65625 L 15.125 -22.890625 L 21.671875 -22.890625 L 12.484375 3.546875 L 11.96875 4.765625 C 10.601562 7.742188 8.347656 9.234375 5.203125 9.234375 C 4.316406 9.234375 3.414062 9.101562 2.5 8.84375 L 2.5 4.203125 L 3.421875 4.234375 C 4.578125 4.234375 5.441406 4.054688 6.015625 3.703125 C 6.585938 3.347656 7.035156 2.765625 7.359375 1.953125 L 8.078125 0.0625 L 0.0625 -22.890625 L 6.640625 -22.890625 Z M 10.890625 -8.65625 "/></g></g></g><g fill="#c2c2c2" fill-opacity="1"><g transform="translate(269.733793, 56.094686)"><g><path d="M 2.25 -1.515625 C 2.25 -2.015625 2.394531 -2.429688 2.6875 -2.765625 C 2.988281 -3.109375 3.4375 -3.28125 4.03125 -3.28125 C 4.632812 -3.28125 5.085938 -3.109375 5.390625 -2.765625 C 5.703125 -2.429688 5.859375 -2.015625 5.859375 -1.515625 C 5.859375 -1.035156 5.703125 -0.632812 5.390625 -0.3125 C 5.085938 0.0078125 4.632812 0.171875 4.03125 0.171875 C 3.4375 0.171875 2.988281 0.0078125 2.6875 -0.3125 C 2.394531 -0.632812 2.25 -1.035156 2.25 -1.515625 Z M 2.25 -1.515625 "/></g></g></g><g fill="#c2c2c2" fill-opacity="1"><g transform="translate(278.17674, 56.094686)"><g><path d="M 7.78125 -3.9375 L 11.984375 -16.953125 L 14.9375 -16.953125 L 8.859375 0 L 6.65625 0 L 0.515625 -16.953125 L 3.484375 -16.953125 Z M 7.78125 -3.9375 "/></g></g></g><g fill="#c2c2c2" fill-opacity="1"><g transform="translate(293.715522, 56.094686)"><g><path d="M 4.9375 -16.953125 L 5.03125 -14.8125 C 6.320312 -16.445312 8.015625 -17.265625 10.109375 -17.265625 C 13.679688 -17.265625 15.484375 -15.242188 15.515625 -11.203125 L 15.515625 0 L 12.625 0 L 12.625 -11.21875 C 12.613281 -12.4375 12.332031 -13.335938 11.78125 -13.921875 C 11.238281 -14.503906 10.382812 -14.796875 9.21875 -14.796875 C 8.28125 -14.796875 7.457031 -14.546875 6.75 -14.046875 C 6.039062 -13.546875 5.488281 -12.890625 5.09375 -12.078125 L 5.09375 0 L 2.1875 0 L 2.1875 -16.953125 Z M 4.9375 -16.953125 "/></g></g></g><g fill="#c2c2c2" fill-opacity="1"><g transform="translate(86.733456, 97.377962)"><g><path d="M 22.734375 0 L 17.546875 0 L 7.4375 -16.578125 L 7.4375 0 L 2.25 0 L 2.25 -25.1875 L 7.4375 -25.1875 L 17.5625 -8.578125 L 17.5625 -25.1875 L 22.734375 -25.1875 Z M 22.734375 0 "/></g></g></g><g fill="#c2c2c2" fill-opacity="1"><g transform="translate(111.749082, 97.377962)"><g><path d="M 13.859375 0 L 8.859375 0 L 8.859375 -19.28125 L 2.890625 -17.421875 L 2.890625 -21.484375 L 13.328125 -25.234375 L 13.859375 -25.234375 Z M 13.859375 0 "/></g></g></g><g fill="#c2c2c2" fill-opacity="1"><g transform="translate(132.076441, 97.377962)"><g><path d="M 13.859375 0 L 8.859375 0 L 8.859375 -19.28125 L 2.890625 -17.421875 L 2.890625 -21.484375 L 13.328125 -25.234375 L 13.859375 -25.234375 Z M 13.859375 0 "/></g></g></g><g fill="#c2c2c2" fill-opacity="1"><g transform="translate(152.403799, 97.377962)"><g><path d="M 15.78125 3.90625 L 0.015625 3.90625 L 0.015625 0 L 15.78125 0 Z M 15.78125 3.90625 "/></g></g></g><g fill="#c2c2c2" fill-opacity="1"><g transform="translate(168.21589, 97.377962)"><g><path d="M 13.859375 0 L 8.859375 0 L 8.859375 -19.28125 L 2.890625 -17.421875 L 2.890625 -21.484375 L 13.328125 -25.234375 L 13.859375 -25.234375 Z M 13.859375 0 "/></g></g></g></svg>