<svg xmlns="http://www.w3.org/2000/svg" width="25" height="25" fill="none"><g clip-path="url(#cart_svg__a)"><path fill="#BE1E2D" d="M22.896 1.334v5.238c0 .23-.186.416-.416.416h-1.517a.417.417 0 0 1-.416-.416v-.707a2.113 2.113 0 0 0-2.113-2.113h-1.17a.42.42 0 0 1-.413-.36 2.107 2.107 0 0 0-2.085-1.798h-.552a.418.418 0 0 1-.406-.51c.157-.703.65-1.03 1.227-1.03h6.581c.707 0 1.28.573 1.28 1.28Zm-6.975 1.83a1.27 1.27 0 0 0-1.155-.736h-4.532a1.28 1.28 0 0 0-1.28 1.28v2.864c0 .23.187.416.417.416h2.595c.23 0 .417-.186.417-.416v-.707c0-1.167.946-2.113 2.113-2.113h1.045a.416.416 0 0 0 .38-.588Zm2.513 1.421h-3.938a1.28 1.28 0 0 0-1.28 1.28v.707c0 .23.187.416.417.416h5.664c.23 0 .416-.186.416-.416v-.707a1.28 1.28 0 0 0-1.28-1.28ZM7.618 19.767h13.25c.792 0 1.476-.537 1.663-1.307l2.457-10.123a.417.417 0 0 0-.405-.515H6.901l-.1-.774a1.715 1.715 0 0 0-1.697-1.492h-3.42C.756 5.556 0 6.312 0 7.24c0 .93.756 1.685 1.684 1.685h1.474c.92 0 1.667-.748 1.667-1.667V6.39h.28c.44 0 .814.33.87.766l1.52 11.782a2.227 2.227 0 0 0-2.1 2.22c0 1.227.997 2.224 2.223 2.224h.356a1.984 1.984 0 0 0 1.937 1.565c.949 0 1.744-.672 1.936-1.565h6.916a1.984 1.984 0 0 0 1.936 1.565 1.983 1.983 0 0 0 1.981-1.981 1.983 1.983 0 0 0-1.98-1.981c-.95 0-1.745.671-1.937 1.564h-6.916a1.984 1.984 0 0 0-1.936-1.564c-.95 0-1.745.671-1.937 1.564h-.356c-.767 0-1.39-.624-1.39-1.39 0-.767.623-1.39 1.39-1.39Z"></path></g><defs><clipPath id="cart_svg__a"><path fill="#fff" d="M0 0h25v25H0z"></path></clipPath></defs></svg>