<svg width="24" height="24" viewBox="0 0 24 24" fill="none" xmlns="http://www.w3.org/2000/svg">
<path d="M11.9966 1.181e-05C14.773 -0.000781816 17.4638 0.961192 19.6104 2.72201C21.7571 4.48282 23.2267 6.93352 23.7689 9.65648C24.3112 12.3794 23.8924 15.2062 22.584 17.655C21.2756 20.1038 19.1586 22.0231 16.5936 23.086C14.0287 24.1488 11.1746 24.2893 8.51763 23.4836C5.86068 22.6779 3.56533 20.9758 2.02272 18.6673C0.480104 16.3589 -0.214317 13.587 0.0577888 10.8239C0.329895 8.06088 1.55169 5.47766 3.51497 3.51449C4.62725 2.3985 5.94923 1.51347 7.40484 0.910319C8.86045 0.307166 10.421 -0.00220316 11.9966 1.181e-05Z" fill="#FECB00"/>
<path fill-rule="evenodd" clip-rule="evenodd" d="M12 1.5C14.0767 1.5 16.1068 2.11581 17.8335 3.26957C19.5602 4.42332 20.906 6.0632 21.7007 7.98182C22.4955 9.90045 22.7034 12.0116 22.2982 14.0484C21.8931 16.0852 20.8931 17.9562 19.4246 19.4246C17.9562 20.8931 16.0852 21.8931 14.0484 22.2982C12.0116 22.7034 9.90045 22.4955 7.98182 21.7007C6.0632 20.906 4.42332 19.5602 3.26957 17.8335C2.11581 16.1068 1.5 14.0767 1.5 12C1.5 9.21523 2.60625 6.54451 4.57538 4.57538C6.54451 2.60625 9.21523 1.5 12 1.5Z" fill="#FFB111" fill-opacity="0.8"/>
<path d="M12.6611 6C15.941 6 18.7357 8.66017 18.7357 11.94C18.7357 15.2198 15.941 17.88 12.6611 17.88V15.9537C14.6265 15.9537 16.2195 14.3608 16.2195 12.3954C16.2195 10.43 14.6265 8.83699 12.6611 8.83699V6Z" fill="#BE1E2D"/>
<path d="M12.0746 6H7.41771C6.63531 6 6 6.63375 6 7.41771V16.9129C6 17.4481 6.43345 17.88 6.96705 17.88H12.0746V15.9537H9.41597C9.09675 15.9537 8.83699 15.694 8.83699 15.3732V15.3826V9.67416V9.68668C8.83699 9.21724 9.2188 8.83699 9.68824 8.83699H9.68042H12.0761V6H12.0746Z" fill="#414042"/>
</svg>