<svg xmlns="http://www.w3.org/2000/svg" width="26" height="26" fill="none"><rect width="25" height="25" x="0.5" y="0.5" fill="#fff" stroke="#808A94" rx="1.5"></rect><path fill="#808A94" d="M16.678 19.457h-6.74a.669.669 0 0 1-.667-.624l-.579-8.598a.669.669 0 0 1 .668-.713h7.896a.67.67 0 0 1 .668.713l-.578 8.598a.67.67 0 0 1-.668.625Zm1.906-11.19H8.116c-.01 0-.016-.006-.016-.015V6.42c0-.01.006-.016.016-.016h10.468c.01 0 .016.006.016.016V8.25c0 .01-.007.018-.016.018Z"></path><path fill="#808A94" d="M16.136 7.305H10.54c-.01 0-.016-.006-.016-.016V5.21c0-.01.007-.017.016-.017h5.595c.009 0 .015.007.015.016V7.29a.016.016 0 0 1-.015.016Z"></path></svg>