<svg xmlns="http://www.w3.org/2000/svg" width="25" height="25" fill="none"><g clip-path="url(#package_svg__a)"><path fill="#BE1E2D" d="M24.445 6.184V6.13c-.027-.053-.027-.106-.053-.159v-.026c-.026-.053-.08-.106-.106-.132l-.026-.027c-.027-.026-.08-.053-.106-.079l-.026-.026H24.1l-.026-.027L12.844.08a.842.842 0 0 0-.714 0L8.351 1.956l11.284 5.787.027.026c.026 0 .026.027.053.027.026.026.026.052.052.079v6.21a.277.277 0 0 1-.132.238l-2.272 1.189c-.133.08-.291.026-.37-.106-.027-.026-.027-.079-.027-.132V9.276L5.55 3.382l-.026-.027L.952 5.63l-.026.026H.899l-.026.027c-.027.026-.08.052-.106.079l-.026.026c-.053.053-.08.106-.132.159v.026a.376.376 0 0 0-.053.159v.053c0 .053-.027.079-.027.132v12.341c0 .29.159.581.45.713l11.125 5.55c.158.079.343.105.528.052l.053-.026c.053 0 .08-.026.132-.053l11.205-5.55a.796.796 0 0 0 .45-.713V6.316c-.027-.053-.027-.08-.027-.132Z"></path></g><defs><clipPath id="package_svg__a"><path fill="#fff" d="M0 0h25v25H0z"></path></clipPath></defs></svg>