<svg xmlns="http://www.w3.org/2000/svg" width="17" height="17" fill="none"><g fill="#2D9CDB" clip-path="url(#edit_svg__a)"><path d="M13.964 8.5a.607.607 0 0 0-.607.607v6.071a.607.607 0 0 1-.607.608H1.82a.607.607 0 0 1-.607-.608V3.036c0-.336.272-.607.607-.607h7.286a.607.607 0 1 0 0-1.215H1.821A1.821 1.821 0 0 0 0 3.036v12.142C0 16.184.815 17 1.821 17H12.75a1.821 1.821 0 0 0 1.821-1.822v-6.07a.607.607 0 0 0-.607-.608Z"></path><path d="M16.319.681a2.324 2.324 0 0 0-3.287 0L5.034 8.678a.614.614 0 0 0-.146.237l-1.214 3.643a.607.607 0 0 0 .767.768l3.643-1.214c.09-.03.17-.08.237-.147l7.998-7.997a2.324 2.324 0 0 0 0-3.287Z"></path></g><defs><clipPath id="edit_svg__a"><path fill="#fff" d="M0 0h17v17H0z"></path></clipPath></defs></svg>