<svg xmlns="http://www.w3.org/2000/svg" width="25" height="19" fill="none">
<path fill="#6FABE6" d="M.521 8.458h3.125v8.854H.521V8.458Z"></path>
<path fill="#82BCF4" d="M3.646 8.458c0 8.203-.052 7.813 0 7.813a2.083 2.083 0 0 1-2.083-2.084V8.458h2.083Z"></path>
<path fill="#F6CCAF" d="M24.48 12.625a1.563 1.563 0 0 1-.85 1.39c-9.181 4.693-8.989 4.86-11.04 4.86-1.49 0-2.084-.432-6.25-2.323-.766-.354-1.298-.281-2.694-.281V9.5c4.964-.62 3.38-.87 11.084 2.75a1.562 1.562 0 0 1 .25 2.676l7.224-3.693a1.563 1.563 0 0 1 2.276 1.391Z"></path>
<path fill="#FFDEC7" d="M24.385 12.104c-.276.807-.166.568-9.14 5.156a5.319 5.319 0 0 1-2.656.573c-1.49 0-2.084-.432-6.25-2.323a3.03 3.03 0 0 0-1.13-.28.521.521 0 0 1-.521-.522V9.37c3.734-.464 2.677-.578 10.041 2.88a1.562 1.562 0 0 1 .61 2.307c-.235.37-.72.557.104.13 7.234-3.692 6.77-3.473 6.953-3.53a1.563 1.563 0 0 1 1.99.947Z"></path>
<path fill="#DF8761" d="M22.396.125c0 12.203.088 10.969-.193 11.11l-7.224 3.692a1.564 1.564 0 0 0-.25-2.677C8.75 9.443 8.734 9.365 7.813 9.208V.125h14.583Z"></path>
<path fill="#F29B75" d="M22.397.125v9.953c-.463.084-.443.115-5.828 2.87a2.606 2.606 0 0 0-1.396-1.64C7.58 7.74 9.965 8.848 9.48 8.634a1.042 1.042 0 0 1-.625-.953V.125h13.542Z"></path>
<path fill="#FC6" d="M17.188.125V3.25l-2.083-1.042L13.02 3.25V.125h4.167Z"></path>
<path fill="#FFDE76" d="M17.188.125v2.083l-2.084-1.041-1.041.52V.125h3.124Z"></path>
<path fill="#CC734C" d="M20.313 10.02H18.23a.521.521 0 0 1 0-1.04h2.083a.52.52 0 1 1 0 1.04Z"></path>
<path fill="#EDB996" d="m13.174 15.547-4.11-1.932a.521.521 0 0 1 .448-.938l4.11 1.933c.88.41 1.192-.579 1.718-.053-.234.37-.719.558.104.13.407.792-1.245 1.355-2.27.86Z"></path>
</svg>