<svg xmlns="http://www.w3.org/2000/svg" width="25" height="25" fill="none"><path fill="#BE1E2D" d="M25 7.959V6.641a2.734 2.734 0 0 0-2.734-2.735H2.734A2.734 2.734 0 0 0 0 6.641v1.318c0 .135.11.244.244.244h24.512c.135 0 .244-.11.244-.244ZM0 10.01v8.35a2.734 2.734 0 0 0 2.734 2.734h19.532A2.734 2.734 0 0 0 25 18.359v-8.35a.244.244 0 0 0-.244-.243H.244A.244.244 0 0 0 0 10.01Zm6.25 6.396c0 .432-.35.782-.781.782h-.782a.781.781 0 0 1-.78-.782v-.781c0-.431.35-.781.78-.781h.782c.431 0 .781.35.781.781v.781Z"></path></svg>