<svg xmlns="http://www.w3.org/2000/svg" width="21" height="21" fill="none">
    <path fill="#BE1E2D" d="M19.17 7.77a2.573 2.573 0 0 1-2.029-3.478 1.208 1.208 0 0 0-.36-1.359 9.678 9.678 0 0 0-2.888-1.673 1.214 1.214 0 0 0-1.372.38 2.566 2.566 0 0 1-4.042 0 1.214 1.214 0 0 0-1.372-.38 9.725 9.725 0 0 0-2.69 1.51 1.22 1.22 0 0 0-.381 1.397 2.56 2.56 0 0 1-2.133 3.518 1.214 1.214 0 0 0-1.063.977 9.396 9.396 0 0 0-.06 3.38 1.214 1.214 0 0 0 1.07 1.017 2.559 2.559 0 0 1 2.088 3.616 1.194 1.194 0 0 0 .334 1.43 9.753 9.753 0 0 0 2.861 1.648 1.21 1.21 0 0 0 1.398-.44 2.54 2.54 0 0 1 2.1-1.102 2.572 2.572 0 0 1 2.06 1.037 1.207 1.207 0 0 0 1.418.4 9.845 9.845 0 0 0 2.625-1.568 1.213 1.213 0 0 0 .355-1.385 2.558 2.558 0 0 1 2.054-3.537 1.215 1.215 0 0 0 1.03-.998 9.523 9.523 0 0 0 .17-1.66c0-.588-.054-1.175-.163-1.752a1.201 1.201 0 0 0-1.01-.978ZM13.78 10.5a3.282 3.282 0 1 1-6.563 0 3.282 3.282 0 0 1 6.563 0Z">
    </path>
</svg>