<svg width="20" height="20" fill="none" xmlns="http://www.w3.org/2000/svg"><path d="m4.813 12.578-.994 6.09a.589.589 0 0 0 .865.61l5.168-2.856 5.167 2.857a.596.596 0 0 0 .623-.035.589.589 0 0 0 .242-.576l-.994-6.09 4.203-4.308a.59.59 0 0 0-.331-.992l-5.786-.884L10.383.871C10.19.46 9.513.46 9.32.871L6.727 6.394l-5.785.884a.588.588 0 0 0-.333.992l4.204 4.308ZM7.215 7.51a.588.588 0 0 0 .443-.331l2.194-4.675 2.194 4.674c.083.177.249.302.443.33l4.964.759-3.61 3.701a.588.588 0 0 0-.16.506l.846 5.188-4.393-2.427a.592.592 0 0 0-.569 0l-4.393 2.427.847-5.188a.588.588 0 0 0-.16-.506l-3.61-3.701 4.964-.757Z" fill="#F2994A"></path></svg>