<svg xmlns="http://www.w3.org/2000/svg" width="25" height="25" fill="none"><g fill="#BE1E2D" clip-path="url(#shop_svg__a)"><path d="M23.157 21.15h-.43V10.409c-.401-.173-.743-.46-.982-.82a2.217 2.217 0 0 1-3.699 0 2.217 2.217 0 0 1-3.698 0 2.217 2.217 0 0 1-3.699 0 2.21 2.21 0 0 1-3.702-.01 2.218 2.218 0 0 1-3.691-.015c-.24.36-.581.65-.986.82V21.15h-.43a.805.805 0 0 0-.805.805v1.53h22.927v-1.53a.805.805 0 0 0-.805-.805Zm-12.335 0H4.774v-7.459c0-.5.405-.908.908-.908h4.232c.5 0 .908.408.908.908v7.46Zm8.982-3.507a.584.584 0 0 1-.585.585h-4.93a.587.587 0 0 1-.588-.585v-4.46c0-.323.264-.584.588-.584h4.93c.323 0 .584.261.584.585v4.46ZM22.007 7.35h2.857l-1.129-2.39a.735.735 0 0 0-.665-.423h-2.008l.945 2.812ZM3.94 4.511H1.933a.739.739 0 0 0-.666.423L.14 7.324h2.853L3.94 4.51ZM22.113 8.084v.284a1.481 1.481 0 1 0 2.96 0v-.284h-2.96Z"></path><path d="M19.896 9.85c.816 0 1.481-.666 1.481-1.482v-.284h-2.963v.284c0 .816.665 1.481 1.482 1.481ZM17.173 5.242l-.143-.705h-2.526l.191 2.812H17.6l-.426-2.107ZM3.625 8.342c0 .816.665 1.481 1.482 1.481.816 0 1.481-.665 1.481-1.481v-.258H3.625v.258ZM20.287 4.537h-2.508l.427 2.106.143.706h2.883l-.945-2.812ZM7.322 8.368a1.481 1.481 0 1 0 2.96 0v-.284h-2.96v.284ZM2.889 8.342v-.283H-.074v.283c0 .816.665 1.482 1.481 1.482.817 0 1.482-.666 1.482-1.482ZM7.22 4.537H4.717l-.938 2.786h2.879l.562-2.786ZM11.234 4.537l-.191 2.812h2.912l-.188-2.812h-2.533ZM16.198 9.85c.817 0 1.482-.666 1.482-1.482v-.284h-2.963v.284c0 .816.665 1.481 1.481 1.481ZM10.496 4.537H7.974l-.57 2.812h2.905l.187-2.812ZM11.018 8.368c0 .816.665 1.481 1.481 1.481.816 0 1.482-.665 1.482-1.481v-.284h-2.963v.284ZM4.959 3.801h17.768v-.746c0-.85-.687-1.54-1.536-1.54H3.81c-.848 0-1.54.69-1.54 1.54v.72h2.695l-.007.026Z"></path></g><defs><clipPath id="shop_svg__a"><path fill="#fff" d="M0 0h25v25H0z"></path></clipPath></defs></svg>