<svg width="17" height="18" fill="none" xmlns="http://www.w3.org/2000/svg">
    <path d="M15.262 2.915 8.755.054a.63.63 0 0 0-.51 0l-6.507 2.86a.705.705 0 0 0-.41.65v3.478c0 4.789 2.734 9.096 6.921 10.906.16.07.341.07.502 0 4.187-1.81 6.92-6.117 6.92-10.906V3.564a.705.705 0 0 0-.409-.65Zm-.918 4.127c0 4.07-2.258 7.818-5.844 9.491-3.49-1.628-5.844-5.31-5.844-9.491V4.033L8.5 1.464l5.844 2.57v3.008Zm-6.578 2.37L10.62 6.39a.638.638 0 0 1 .94 0c.259.274.259.72 0 .994l-3.324 3.52a.638.638 0 0 1-.94 0L5.441 8.937a.733.733 0 0 1 0-.994.638.638 0 0 1 .939 0l1.386 1.468Z" fill="#BE1E2D">
    </path>
</svg>